<?xml version="1.0" encoding="UTF-8"?>
<!DOCTYPE svg PUBLIC "-//W3C//DTD SVG 1.1//EN" "http://www.w3.org/Graphics/SVG/1.1/DTD/svg11.dtd">
<svg version="1.1" xmlns="http://www.w3.org/2000/svg" xmlns:xlink="http://www.w3.org/1999/xlink" x="0" y="0" width="2500" height="2500" viewBox="0, 0, 2500, 2500">
  <g id="图层_1">
    <g>
      <path d="M686.713,1383.247 L810.782,1514.473 L948.849,1373.139 L828.8,1249.973 L948.849,1124.798 L810.782,983.478 L686.713,1114.704 L684.723,1112.696 L678.726,1106.645 L672.729,1096.551 L668.722,1090.5 L662.725,1084.448 L658.704,1076.362 L652.707,1070.311 L636.692,1054.152 L620.678,1035.971 L612.677,1027.899 L600.67,1017.804 L592.669,1009.732 L580.661,999.637 L568.654,991.565 L556.646,983.492 L544.639,973.398 L532.631,965.325 L518.62,957.252 L504.622,951.201 L490.611,945.136 L474.61,937.064 L444.598,928.991 L428.583,924.961 L376.56,918.91 L348.564,918.91 L322.546,922.94 L296.527,926.956 L272.525,930.999 L230.506,947.144 L212.501,957.239 L194.483,969.354 L178.468,981.47 L164.457,993.586 L150.446,1007.724 L138.438,1021.861 L126.431,1035.985 L108.426,1066.281 L94.415,1096.564 L88.418,1112.723 L78.414,1143.006 L74.434,1157.116 L70.427,1171.254 L68.437,1183.37 L66.433,1195.485 L62.44,1217.696 L62.44,1227.79 L60.436,1235.876 L60.436,1262.116 L62.44,1270.189 L62.44,1280.283 L66.433,1302.479 L68.437,1314.595 L70.427,1326.711 L74.434,1340.849 L78.427,1354.986 L88.431,1385.269 L94.429,1401.414 L108.44,1431.697 L126.444,1461.98 L138.452,1476.104 L150.459,1490.241 L164.471,1504.365 L178.482,1516.481 L194.496,1528.61 L212.514,1540.726 L230.519,1550.821 L272.539,1566.966 L296.54,1573.017 L348.564,1579.068 L394.578,1579.068 L410.592,1575.039 L428.597,1575.039 L444.612,1568.987 L474.624,1560.901 L490.625,1554.85 L504.636,1546.777 L518.634,1540.726 L532.645,1532.64 L544.652,1524.567 L556.66,1514.473 L568.667,1508.422 L580.675,1498.328 L592.683,1488.233 L600.683,1480.161 L612.691,1470.066 L620.691,1461.994 L636.706,1443.813 L652.721,1427.668 L658.718,1421.603 L662.711,1413.53 L668.708,1407.479 L672.715,1401.428 L678.712,1391.334 L684.709,1385.282 L686.713,1383.247 z M362.562,1377.196 L352.558,1377.196 L322.532,1371.131 L304.527,1363.059 L294.523,1354.986 L288.526,1350.943 L284.519,1346.913 L276.519,1336.819 L266.515,1322.682 L264.511,1318.652 L262.508,1312.601 L260.504,1308.571 L258.514,1302.507 L254.507,1292.412 L254.507,1286.334 L252.517,1276.24 L252.517,1266.145 L250.514,1262.116 L250.514,1235.876 L252.517,1231.833 L252.517,1221.725 L254.507,1211.631 L254.507,1205.566 L258.514,1195.472 L260.504,1189.421 L262.508,1185.391 L264.511,1179.326 L266.515,1175.297 L276.519,1161.159 L284.519,1151.065 L288.526,1147.036 L294.523,1143.006 L304.527,1136.941 L322.532,1126.847 L352.558,1120.796 L370.562,1120.796 L398.571,1124.825 L408.575,1128.855 L416.576,1130.877 L424.576,1136.928 L434.58,1138.949 L442.581,1142.992 L450.581,1149.044 L458.582,1155.095 L466.583,1161.146 L474.583,1165.175 L488.594,1177.291 L494.591,1183.342 L502.592,1189.393 L514.599,1203.531 L520.61,1207.574 L526.607,1213.625 L530.601,1217.655 L534.594,1223.706 L546.602,1235.822 L552.612,1241.873 L554.616,1247.924 L556.606,1249.932 L554.616,1249.932 L552.612,1255.983 L546.602,1262.048 L534.594,1274.163 L530.601,1280.228 L526.607,1284.258 L520.61,1290.323 L514.599,1296.374 L502.592,1308.49 L494.632,1314.609 L488.635,1320.66 L474.624,1332.776 L466.623,1336.805 L458.623,1342.856 L450.622,1348.921 L442.622,1354.972 L434.621,1359.002 L424.617,1363.045 L416.616,1367.075 L408.616,1369.096 L398.612,1373.126 L370.603,1377.169 L362.562,1377.169 L362.562,1377.196 z M2123.386,918.883 L2073.366,924.934 L2055.361,928.964 L2025.349,937.036 L2009.348,945.109 L1995.337,951.174 L1981.326,957.225 L1967.315,965.298 L1955.307,973.37 L1943.3,983.465 L1931.292,991.537 L1921.302,999.61 L1909.294,1009.704 L1899.276,1017.777 L1889.286,1027.871 L1879.268,1035.944 L1863.267,1054.125 L1849.256,1070.284 L1843.259,1076.335 L1837.262,1084.407 L1831.265,1090.458 L1827.271,1096.51 L1821.274,1106.604 L1817.281,1112.655 L1815.277,1114.663 L1689.218,983.437 L1551.151,1124.771 L1671.213,1249.945 L1551.151,1373.112 L1689.218,1514.446 L1815.277,1383.22 L1817.281,1385.242 L1821.274,1391.293 L1827.271,1401.387 L1831.265,1407.438 L1837.262,1413.489 L1843.259,1421.562 L1849.256,1427.627 L1863.267,1443.772 L1879.268,1461.953 L1889.286,1470.025 L1899.276,1480.12 L1909.294,1488.192 L1921.302,1498.286 L1931.292,1508.381 L1943.3,1514.432 L1955.307,1524.526 L1967.315,1532.599 L1981.326,1540.685 L1995.337,1546.736 L2009.348,1554.809 L2025.349,1560.86 L2055.361,1568.947 L2073.366,1574.998 L2089.394,1574.998 L2105.395,1579.027 L2151.422,1579.027 L2205.436,1572.976 L2227.461,1566.925 L2269.481,1550.78 L2289.503,1540.685 L2305.504,1528.569 L2323.508,1516.44 L2335.516,1504.324 L2349.527,1490.2 L2361.535,1476.063 L2373.542,1461.939 L2391.547,1431.656 L2407.575,1401.373 L2413.572,1385.228 L2421.559,1354.945 L2427.556,1340.808 L2429.56,1326.67 L2431.563,1314.554 L2435.557,1302.438 L2437.56,1280.242 L2437.56,1270.148 L2439.564,1262.075 L2439.564,1235.835 L2437.56,1227.749 L2437.56,1217.655 L2435.557,1195.444 L2431.563,1183.329 L2429.56,1171.213 L2427.556,1157.075 L2421.559,1142.938 L2413.572,1112.655 L2407.575,1096.496 L2391.547,1066.213 L2373.542,1035.917 L2361.535,1021.793 L2349.527,1007.655 L2335.516,993.518 L2323.508,981.402 L2305.504,969.286 L2289.503,957.17 L2269.481,947.076 L2227.461,930.931 L2205.436,926.887 L2177.441,922.844 L2151.422,918.815 L2123.386,918.815 L2123.386,918.883 z M2139.415,1377.196 L2129.397,1377.196 L2101.402,1373.153 L2093.388,1369.123 L2085.374,1367.102 L2075.383,1363.072 L2065.393,1359.029 L2059.396,1355 L2049.378,1348.949 L2041.364,1342.884 L2033.377,1336.833 L2027.38,1332.803 L2011.352,1320.687 L2005.355,1314.636 L1997.368,1308.585 L1985.36,1296.469 L1979.363,1290.418 L1975.342,1284.353 L1969.345,1280.324 L1965.352,1274.259 L1953.344,1262.143 L1947.347,1256.078 L1945.344,1250.027 L1943.34,1250.027 L1945.344,1248.019 L1947.347,1241.968 L1953.344,1235.917 L1965.352,1223.801 L1969.345,1217.75 L1975.342,1213.721 L1979.363,1207.67 L1985.36,1203.626 L1997.368,1189.489 L2005.355,1183.438 L2011.352,1177.387 L2027.38,1165.271 L2033.377,1161.241 L2041.364,1155.19 L2049.378,1149.139 L2059.396,1143.088 L2065.393,1139.045 L2075.383,1137.023 L2085.374,1130.972 L2093.388,1128.951 L2101.402,1124.921 L2129.397,1120.892 L2147.429,1120.892 L2177.441,1126.943 L2197.462,1137.037 L2205.449,1143.102 L2211.447,1147.131 L2215.467,1151.161 L2223.454,1161.255 L2233.472,1175.392 L2235.448,1179.422 L2237.452,1185.487 L2239.455,1189.516 L2243.449,1195.567 L2245.452,1205.662 L2245.452,1211.726 L2249.446,1221.821 L2249.446,1276.322 L2245.452,1286.416 L2245.452,1292.467 L2243.449,1302.561 L2239.455,1308.626 L2237.452,1312.656 L2235.448,1318.707 L2233.472,1322.736 L2223.454,1336.874 L2215.467,1346.968 L2211.433,1350.943 L2205.436,1354.986 L2197.449,1363.059 L2177.427,1371.131 L2147.415,1377.196 L2139.415,1377.196 z" fill="#FC4A4A"/>
      <path d="M972.851,321.251 L984.858,325.281 L996.866,327.302 L1006.883,329.351 L1018.891,333.394 L1028.895,337.424 L1040.903,341.453 L1048.903,345.496 L1056.904,349.54 L1066.908,353.569 L1072.918,359.62 L1080.919,363.65 L1086.916,367.693 L1092.913,373.744 L1098.924,377.76 L1102.931,379.768 L1144.95,422.167 L1166.962,446.398 L1245.005,525.145 L1249.012,531.196 L1251.002,529.174 L1251.002,531.196 L1256.999,525.145 L1333.038,446.398 L1357.039,422.167 L1397.069,379.768 L1403.066,377.76 L1409.063,373.717 L1413.057,367.666 L1421.071,363.622 L1427.068,359.593 L1435.082,353.542 L1443.096,349.512 L1451.083,345.469 L1461.101,341.426 L1471.091,337.397 L1481.109,333.367 L1493.116,329.324 L1503.107,327.316 L1515.115,325.294 L1527.122,321.265 L1593.144,321.265 L1621.166,327.316 L1637.167,331.345 L1651.178,337.397 L1665.189,343.461 L1697.205,359.607 L1727.217,379.795 L1743.218,393.933 L1757.229,406.035 L1775.234,422.194 L1803.256,452.477 L1815.264,468.636 L1825.254,486.803 L1843.259,517.086 L1851.273,531.223 L1857.27,545.36 L1863.267,561.506 L1867.26,575.643 L1869.264,589.781 L1871.267,605.926 L1873.244,618.042 L1873.244,658.419 L1869.25,670.535 L1869.25,682.651 L1865.257,694.767 L1859.26,716.977 L1849.242,739.187 L1835.258,765.427 L1829.261,773.499 L1825.241,781.572 L1819.244,789.645 L1815.25,795.71 L1809.253,801.761 L1803.256,807.812 L1777.237,832.044 L1727.217,886.558 L1659.192,957.218 L1581.136,1037.986 L1507.1,1116.732 L1395.052,1229.791 L1377.048,1249.979 L1395.039,1268.16 L1507.087,1381.219 L1581.122,1461.987 L1659.178,1540.733 L1727.203,1611.393 L1777.224,1665.908 L1803.243,1690.126 L1815.237,1702.228 L1819.23,1708.279 L1825.227,1716.365 L1829.248,1724.438 L1835.245,1732.524 L1849.229,1760.786 L1859.246,1780.974 L1865.243,1803.184 L1869.237,1815.3 L1869.237,1827.43 L1873.23,1839.546 L1873.23,1879.923 L1871.254,1892.039 L1869.25,1908.198 L1867.247,1922.321 L1863.253,1936.459 L1857.256,1952.618 L1851.259,1966.742 L1843.245,1980.879 L1825.241,2013.17 L1815.25,2029.329 L1803.243,2045.488 L1775.22,2075.771 L1757.216,2091.93 L1743.205,2106.067 L1727.203,2118.183 L1697.191,2138.372 L1665.176,2154.544 L1637.153,2166.647 L1621.152,2170.676 L1593.13,2176.727 L1579.146,2178.749 L1553.127,2178.749 L1541.12,2176.727 L1527.109,2176.727 L1515.101,2172.698 L1503.093,2170.676 L1493.103,2168.668 L1481.095,2164.625 L1471.078,2160.596 L1461.087,2156.552 L1451.07,2152.509 L1443.083,2148.466 L1435.068,2144.423 L1427.054,2138.372 L1421.057,2134.342 L1413.043,2130.299 L1409.05,2124.248 L1403.053,2120.205 L1397.056,2118.197 L1357.026,2075.798 L1333.024,2051.58 L1256.985,1972.834 L1250.988,1966.783 L1250.988,1968.791 L1248.998,1966.783 L1244.991,1972.834 L1166.948,2051.58 L1144.937,2075.798 L1102.917,2118.197 L1098.91,2120.205 L1092.913,2124.248 L1086.916,2130.299 L1080.919,2134.342 L1072.918,2138.372 L1066.908,2144.423 L1056.904,2148.466 L1048.903,2152.509 L1040.903,2156.552 L1028.895,2160.596 L1018.891,2164.625 L1006.883,2168.668 L996.879,2170.676 L984.872,2172.698 L972.864,2176.727 L960.857,2176.727 L948.849,2178.749 L920.84,2178.749 L906.843,2176.727 L878.834,2170.676 L862.819,2166.647 L850.812,2160.596 L834.797,2154.544 L804.785,2138.372 L772.769,2118.183 L758.758,2106.067 L742.757,2091.93 L724.739,2075.771 L698.734,2045.488 L686.726,2029.329 L674.719,2013.17 L664.715,1997.025 L656.714,1980.865 L648.713,1966.728 L642.716,1952.604 L638.723,1936.445 L632.712,1922.308 L630.722,1908.184 L628.719,1892.025 L626.715,1879.909 L626.715,1839.532 L628.719,1827.416 L634.716,1803.184 L640.713,1780.974 L650.717,1760.786 L664.728,1732.524 L670.725,1724.438 L674.719,1716.365 L680.716,1708.279 L686.713,1702.228 L692.723,1696.177 L696.717,1690.126 L722.735,1665.908 L772.756,1611.393 L842.798,1540.733 L918.837,1461.987 L994.876,1381.219 L1060.897,1314.602 L1106.924,1268.16 L1122.912,1249.979 L1106.897,1229.791 L1060.87,1183.349 L994.849,1116.732 L918.81,1037.986 L842.771,957.218 L772.729,886.558 L722.708,832.044 L696.69,807.812 L692.696,801.761 L686.686,795.71 L680.689,789.645 L674.692,781.572 L670.698,773.499 L664.701,765.427 L650.69,739.187 L640.686,716.977 L634.689,694.767 L628.692,670.535 L626.688,658.419 L626.688,618.042 L628.692,605.926 L630.695,589.781 L632.685,575.643 L638.696,561.506 L642.689,545.36 L648.686,531.223 L656.687,517.086 L664.687,500.927 L674.692,486.789 L686.699,468.622 L698.707,452.463 L724.712,422.18 L742.73,406.021 L758.731,393.919 L772.742,379.781 L804.758,359.593 L834.77,343.448 L850.785,337.383 L862.792,331.332 L878.807,327.302 L906.843,321.251 L972.851,321.251 z M1251.002,1419.615 L1232.997,1435.774 L1190.977,1482.216 L1128.949,1544.79 L986.875,1692.188 L922.844,1758.805 L874.827,1807.268 L852.815,1831.487 L850.825,1833.508 L846.818,1839.559 L842.825,1841.567 L836.814,1853.683 L836.814,1861.756 L834.824,1865.799 L832.821,1869.828 L832.821,1873.872 L830.817,1879.923 L830.817,1900.111 L832.821,1904.154 L832.821,1908.198 L840.821,1932.416 L842.825,1934.437 L852.829,1948.561 L856.836,1952.604 L858.826,1956.634 L868.83,1962.685 L870.82,1966.728 L880.824,1972.779 L884.831,1972.779 L888.825,1976.822 L906.843,1982.873 L908.833,1982.873 L914.83,1984.895 L934.851,1984.895 L938.845,1982.873 L942.839,1982.873 L946.845,1980.865 L950.853,1980.865 L960.857,1976.822 L964.85,1974.801 L968.857,1972.793 L972.851,1968.75 L978.848,1966.742 L980.851,1962.698 L990.855,1952.618 L1006.87,1934.451 L1026.878,1912.241 L1052.897,1890.031 L1072.905,1865.813 L1106.924,1833.508 L1112.921,1827.457 L1012.867,1722.457 L1150.934,1581.124 L1250.975,1686.11 L1349.039,1581.124 L1487.106,1722.457 L1389.042,1827.457 L1393.062,1833.508 L1427.068,1865.813 L1449.093,1890.031 L1473.095,1912.241 L1493.116,1934.451 L1509.117,1952.618 L1521.125,1962.698 L1521.125,1966.742 L1527.122,1968.75 L1533.119,1972.793 L1535.123,1974.801 L1541.12,1976.822 L1549.134,1980.865 L1553.127,1980.865 L1557.121,1982.873 L1561.141,1982.873 L1565.135,1984.895 L1587.133,1984.895 L1591.154,1982.873 L1593.13,1982.873 L1613.152,1976.822 L1615.155,1972.779 L1619.149,1972.779 L1629.166,1966.728 L1633.16,1962.685 L1641.174,1956.634 L1645.181,1952.604 L1647.184,1948.561 L1657.175,1934.437 L1659.178,1932.416 L1667.193,1908.198 L1667.193,1904.154 L1669.169,1900.111 L1669.169,1879.923 L1667.193,1873.872 L1667.193,1869.828 L1665.189,1865.799 L1665.189,1859.734 L1663.186,1853.683 L1657.189,1841.567 L1653.195,1839.559 L1651.192,1833.508 L1647.198,1831.487 L1625.173,1807.268 L1577.156,1758.805 L1513.125,1692.188 L1371.064,1544.79 L1311.04,1482.216 L1267.016,1435.774 L1251.002,1419.615 z M934.824,513.124 L914.803,513.124 L908.806,515.132 L906.816,515.132 L888.798,521.183 L884.804,525.227 L880.797,527.235 L870.793,533.286 L868.803,535.307 L858.799,541.358 L856.809,545.388 L852.802,549.417 L842.798,563.555 L840.794,565.563 L832.794,589.794 L832.794,593.824 L830.79,599.875 L830.79,620.064 L832.794,624.107 L832.794,628.136 L834.797,632.18 L836.787,636.209 L836.787,644.282 L842.798,656.398 L846.791,658.419 L850.798,666.492 L852.802,666.492 L874.813,690.724 L922.83,739.187 L986.862,805.804 L1058.894,880.507 L1128.909,953.175 L1190.937,1017.784 L1232.956,1062.204 L1250.961,1078.363 L1310.999,1017.784 L1371.023,953.175 L1441.065,880.493 L1513.084,805.79 L1577.115,739.173 L1625.132,690.71 L1647.157,666.492 L1651.151,666.492 L1653.154,658.419 L1657.148,656.398 L1663.145,644.282 L1665.148,638.231 L1665.148,632.18 L1667.152,628.136 L1667.152,624.107 L1669.128,620.064 L1669.128,599.875 L1667.152,593.824 L1667.152,589.794 L1659.138,565.563 L1657.134,563.555 L1647.144,549.417 L1645.14,545.388 L1641.147,541.358 L1633.133,535.307 L1629.139,533.286 L1619.122,527.235 L1615.128,525.227 L1613.125,521.183 L1593.103,515.132 L1591.126,515.132 L1587.106,513.124 L1565.108,513.124 L1561.114,515.132 L1557.094,515.132 L1553.1,517.154 L1549.107,517.154 L1541.093,521.183 L1535.096,523.205 L1533.092,525.227 L1527.095,529.256 L1521.098,533.286 L1521.098,535.307 L1509.09,545.401 L1493.089,563.582 L1473.068,585.779 L1449.066,607.989 L1427.041,632.221 L1393.035,666.547 L1389.014,672.598 L1487.079,775.562 L1349.012,916.896 L1250.948,811.91 L1150.907,916.896 L1012.84,775.562 L1112.894,672.598 L1106.897,666.547 L1072.878,632.221 L1052.87,607.989 L1026.851,585.779 L1006.843,563.582 L990.828,545.401 L980.824,535.307 L978.821,533.286 L972.824,529.256 L968.83,525.227 L964.823,523.205 L960.83,521.183 L950.825,517.154 L946.818,517.154 L942.811,515.132 L938.818,515.132 L934.824,513.124 z" fill="#FC4A4A"/>
    </g>
  </g>
</svg>
