<?xml version="1.0" encoding="UTF-8"?>
<!DOCTYPE svg PUBLIC "-//W3C//DTD SVG 1.1//EN" "http://www.w3.org/Graphics/SVG/1.1/DTD/svg11.dtd">
<svg version="1.1" xmlns="http://www.w3.org/2000/svg" xmlns:xlink="http://www.w3.org/1999/xlink" x="0" y="0" width="2500" height="1250" viewBox="0, 0, 2500, 1250">
  <g id="图层_1">
    <g>
      <path d="M288.932,680.949 L341.028,736.049 L399.001,676.705 L348.594,624.989 L399.001,572.429 L341.028,513.09 L288.932,568.19 L288.097,567.347 L285.579,564.807 L283.061,560.568 L281.378,558.027 L278.86,555.487 L277.172,552.091 L274.654,549.55 L267.929,542.765 L261.205,535.131 L257.846,531.742 L252.804,527.503 L249.444,524.114 L244.402,519.875 L239.361,516.486 L234.319,513.096 L229.277,508.857 L224.235,505.468 L218.352,502.078 L212.474,499.537 L206.591,496.991 L199.873,493.601 L187.271,490.212 L180.546,488.52 L158.702,485.979 L146.947,485.979 L136.022,487.671 L125.097,489.357 L115.019,491.055 L97.376,497.834 L89.816,502.072 L82.25,507.16 L75.526,512.247 L69.642,517.334 L63.759,523.271 L58.717,529.207 L53.676,535.137 L46.116,547.858 L40.232,560.574 L37.714,567.359 L33.514,580.074 L31.843,585.999 L30.16,591.935 L29.325,597.023 L28.483,602.11 L26.806,611.436 L26.806,615.674 L25.965,619.07 L25.965,630.087 L26.806,633.477 L26.806,637.715 L28.483,647.036 L29.325,652.123 L30.16,657.21 L31.843,663.146 L33.519,669.083 L37.72,681.798 L40.238,688.577 L46.121,701.293 L53.681,714.008 L58.723,719.939 L63.765,725.875 L69.648,731.805 L75.531,736.893 L82.256,741.986 L89.821,747.073 L97.381,751.312 L115.025,758.091 L125.103,760.632 L146.947,763.172 L166.268,763.172 L172.992,761.48 L180.552,761.48 L187.276,758.94 L199.878,755.544 L206.597,753.003 L212.48,749.614 L218.358,747.073 L224.241,743.678 L229.283,740.288 L234.324,736.049 L239.366,733.509 L244.408,729.27 L249.45,725.032 L252.809,721.642 L257.851,717.404 L261.211,714.014 L267.935,706.38 L274.659,699.601 L277.177,697.054 L278.854,693.665 L281.372,691.124 L283.055,688.583 L285.573,684.345 L288.091,681.804 L288.932,680.949 z M152.825,678.408 L148.624,678.408 L136.017,675.862 L128.457,672.472 L124.256,669.083 L121.738,667.385 L120.055,665.693 L116.696,661.454 L112.495,655.518 L111.654,653.826 L110.813,651.286 L109.972,649.594 L109.136,647.047 L107.454,642.809 L107.454,640.256 L106.618,636.018 L106.618,631.779 L105.777,630.087 L105.777,619.07 L106.618,617.372 L106.618,613.128 L107.454,608.889 L107.454,606.343 L109.136,602.104 L109.972,599.563 L110.813,597.871 L111.654,595.325 L112.495,593.633 L116.696,587.697 L120.055,583.458 L121.738,581.766 L124.256,580.074 L128.457,577.528 L136.017,573.289 L148.624,570.749 L156.184,570.749 L167.945,572.44 L172.145,574.132 L175.505,574.981 L178.864,577.522 L183.065,578.371 L186.424,580.069 L189.783,582.609 L193.143,585.15 L196.502,587.691 L199.861,589.383 L205.744,594.47 L208.262,597.011 L211.622,599.552 L216.664,605.488 L219.187,607.186 L221.706,609.727 L223.382,611.419 L225.059,613.959 L230.101,619.047 L232.625,621.587 L233.466,624.128 L234.302,624.971 L233.466,624.971 L232.625,627.512 L230.101,630.059 L225.059,635.146 L223.382,637.693 L221.706,639.384 L219.187,641.931 L216.664,644.472 L211.622,649.559 L208.28,652.129 L205.761,654.669 L199.878,659.757 L196.519,661.449 L193.16,663.99 L189.8,666.536 L186.441,669.077 L183.082,670.769 L178.881,672.466 L175.522,674.158 L172.162,675.007 L167.962,676.699 L156.201,678.397 L152.825,678.397 L152.825,678.408 z M892.177,485.967 L871.174,488.508 L863.614,490.2 L851.012,493.59 L844.294,496.979 L838.411,499.526 L832.527,502.067 L826.644,505.456 L821.602,508.846 L816.561,513.084 L811.519,516.474 L807.324,519.864 L802.282,524.102 L798.076,527.492 L793.881,531.73 L789.674,535.12 L782.956,542.754 L777.073,549.539 L774.555,552.08 L772.036,555.469 L769.518,558.01 L767.841,560.551 L765.323,564.789 L763.647,567.33 L762.805,568.173 L709.874,513.073 L651.901,572.418 L702.314,624.977 L651.901,676.693 L709.874,736.038 L762.805,680.938 L763.647,681.787 L765.323,684.327 L767.841,688.566 L769.518,691.107 L772.036,693.647 L774.555,697.037 L777.073,699.584 L782.956,706.363 L789.674,713.997 L793.881,717.386 L798.076,721.625 L802.282,725.015 L807.324,729.253 L811.519,733.492 L816.561,736.032 L821.602,740.271 L826.644,743.66 L832.527,747.056 L838.411,749.597 L844.294,752.986 L851.012,755.527 L863.614,758.922 L871.174,761.463 L877.904,761.463 L884.623,763.155 L903.949,763.155 L926.629,760.614 L935.877,758.074 L953.521,751.294 L961.928,747.056 L968.646,741.969 L976.206,736.875 L981.248,731.788 L987.131,725.858 L992.173,719.921 L997.215,713.991 L1004.775,701.276 L1011.505,688.56 L1014.023,681.781 L1017.377,669.065 L1019.895,663.129 L1020.736,657.193 L1021.578,652.106 L1023.254,647.018 L1024.096,637.698 L1024.096,633.46 L1024.937,630.07 L1024.937,619.052 L1024.096,615.657 L1024.096,611.419 L1023.254,602.093 L1021.578,597.005 L1020.736,591.918 L1019.895,585.982 L1017.377,580.046 L1014.023,567.33 L1011.505,560.545 L1004.775,547.83 L997.215,535.109 L992.173,529.178 L987.131,523.242 L981.248,517.306 L976.206,512.218 L968.646,507.131 L961.928,502.044 L953.521,497.805 L935.877,491.026 L926.629,489.328 L914.874,487.631 L903.949,485.939 L892.177,485.939 L892.177,485.967 z M898.907,678.408 L894.701,678.408 L882.946,676.711 L879.581,675.019 L876.216,674.17 L872.021,672.478 L867.826,670.78 L865.308,669.088 L861.102,666.547 L857.737,664.001 L854.383,661.46 L851.865,659.768 L845.135,654.681 L842.617,652.14 L839.263,649.599 L834.221,644.512 L831.703,641.971 L830.015,639.425 L827.497,637.733 L825.82,635.186 L820.778,630.099 L818.26,627.552 L817.419,625.011 L816.578,625.011 L817.419,624.168 L818.26,621.628 L820.778,619.087 L825.82,613.999 L827.497,611.459 L830.015,609.767 L831.703,607.226 L834.221,605.528 L839.263,599.592 L842.617,597.051 L845.135,594.51 L851.865,589.423 L854.383,587.731 L857.737,585.19 L861.102,582.65 L865.308,580.109 L867.826,578.411 L872.021,577.562 L876.216,575.021 L879.581,574.173 L882.946,572.481 L894.701,570.789 L902.272,570.789 L914.874,573.329 L923.281,577.568 L926.635,580.115 L929.153,581.806 L930.841,583.498 L934.195,587.737 L938.401,593.673 L939.231,595.365 L940.072,597.912 L940.913,599.604 L942.59,602.144 L943.431,606.383 L943.431,608.929 L945.108,613.168 L945.108,636.052 L943.431,640.291 L943.431,642.831 L942.59,647.07 L940.913,649.617 L940.072,651.308 L939.231,653.849 L938.401,655.541 L934.195,661.477 L930.841,665.716 L929.147,667.385 L926.629,669.083 L923.275,672.472 L914.868,675.862 L902.267,678.408 L898.907,678.408 z" fill="#FFFFFF"/>
      <path d="M409.079,235.028 L414.121,236.72 L419.163,237.568 L423.369,238.429 L428.411,240.126 L432.611,241.818 L437.653,243.51 L441.013,245.208 L444.372,246.906 L448.573,248.598 L451.096,251.138 L454.456,252.83 L456.974,254.528 L459.492,257.069 L462.016,258.755 L463.698,259.598 L481.342,277.401 L490.584,287.576 L523.354,320.641 L525.036,323.181 L525.872,322.332 L525.872,323.181 L528.39,320.641 L560.318,287.576 L570.396,277.401 L587.204,259.598 L589.722,258.755 L592.24,257.057 L593.917,254.517 L597.282,252.819 L599.8,251.127 L603.165,248.586 L606.53,246.894 L609.884,245.197 L614.09,243.499 L618.285,241.807 L622.491,240.115 L627.533,238.417 L631.728,237.574 L636.77,236.725 L641.812,235.033 L669.534,235.033 L681.3,237.574 L688.019,239.266 L693.902,241.807 L699.785,244.353 L713.228,251.133 L725.83,259.61 L732.548,265.546 L738.432,270.627 L745.991,277.413 L757.758,290.128 L762.8,296.913 L766.995,304.541 L774.554,317.257 L777.919,323.193 L780.438,329.129 L782.956,335.908 L784.633,341.844 L785.474,347.781 L786.315,354.56 L787.145,359.647 L787.145,376.601 L785.468,381.688 L785.468,386.776 L783.791,391.863 L781.273,401.189 L777.067,410.515 L771.195,421.533 L768.677,424.922 L766.989,428.312 L764.471,431.701 L762.794,434.248 L760.276,436.789 L757.758,439.33 L746.833,449.504 L725.83,472.394 L697.267,502.064 L664.492,535.977 L633.405,569.042 L586.357,616.514 L578.797,624.991 L586.351,632.625 L633.399,680.097 L664.486,714.011 L697.261,747.076 L725.824,776.745 L746.827,799.635 L757.752,809.804 L762.788,814.886 L764.465,817.427 L766.983,820.822 L768.671,824.212 L771.189,827.607 L777.061,839.474 L781.268,847.951 L783.786,857.277 L785.462,862.364 L785.462,867.457 L787.139,872.544 L787.139,889.498 L786.309,894.586 L785.468,901.371 L784.627,907.301 L782.95,913.237 L780.432,920.022 L777.914,925.953 L774.549,931.889 L766.989,945.447 L762.794,952.232 L757.752,959.017 L745.986,971.733 L738.426,978.518 L732.543,984.454 L725.824,989.541 L713.222,998.018 L699.779,1004.809 L688.013,1009.891 L681.294,1011.583 L669.528,1014.124 L663.656,1014.972 L652.731,1014.972 L647.689,1014.124 L641.806,1014.124 L636.764,1012.432 L631.722,1011.583 L627.528,1010.74 L622.486,1009.042 L618.279,1007.35 L614.084,1005.652 L609.878,1003.955 L606.524,1002.257 L603.159,1000.559 L599.794,998.018 L597.276,996.326 L593.911,994.629 L592.234,992.088 L589.716,990.39 L587.198,989.547 L570.39,971.744 L560.312,961.575 L528.384,928.511 L525.866,925.97 L525.866,926.813 L525.03,925.97 L523.348,928.511 L490.579,961.575 L481.336,971.744 L463.692,989.547 L462.01,990.39 L459.492,992.088 L456.974,994.629 L454.456,996.326 L451.096,998.018 L448.573,1000.559 L444.372,1002.257 L441.013,1003.955 L437.653,1005.652 L432.611,1007.35 L428.411,1009.042 L423.369,1010.74 L419.168,1011.583 L414.126,1012.432 L409.084,1014.124 L404.043,1014.124 L399.001,1014.972 L387.24,1014.972 L381.363,1014.124 L369.602,1011.583 L362.878,1009.891 L357.836,1007.35 L351.112,1004.809 L338.51,998.018 L325.067,989.541 L319.184,984.454 L312.465,978.518 L304.899,971.733 L293.98,959.017 L288.938,952.232 L283.896,945.447 L279.696,938.668 L276.336,931.883 L272.977,925.947 L270.459,920.016 L268.782,913.231 L266.258,907.295 L265.423,901.365 L264.581,894.58 L263.74,889.492 L263.74,872.539 L264.581,867.451 L267.099,857.277 L269.617,847.951 L273.818,839.474 L279.701,827.607 L282.219,824.212 L283.896,820.822 L286.414,817.427 L288.932,814.886 L291.456,812.345 L293.133,809.804 L304.058,799.635 L325.061,776.745 L354.471,747.076 L386.399,714.011 L418.327,680.097 L446.049,652.126 L465.375,632.625 L472.088,624.991 L465.364,616.514 L446.037,597.014 L418.316,569.042 L386.388,535.977 L354.46,502.064 L325.05,472.394 L304.047,449.504 L293.122,439.33 L291.445,436.789 L288.921,434.248 L286.403,431.701 L283.885,428.312 L282.208,424.922 L279.69,421.533 L273.807,410.515 L269.606,401.189 L267.088,391.863 L264.57,381.688 L263.729,376.601 L263.729,359.647 L264.57,354.56 L265.411,347.781 L266.247,341.844 L268.771,335.908 L270.447,329.129 L272.965,323.193 L276.325,317.257 L279.684,310.472 L283.885,304.535 L288.927,296.907 L293.968,290.122 L304.888,277.407 L312.453,270.622 L319.172,265.54 L325.055,259.604 L338.498,251.127 L351.1,244.348 L357.825,241.801 L362.866,239.26 L369.591,237.568 L381.363,235.028 L409.079,235.028 z M525.872,696.22 L518.312,703.005 L500.668,722.505 L474.623,748.779 L414.968,810.67 L388.081,838.642 L367.92,858.991 L358.677,869.16 L357.842,870.009 L356.159,872.55 L354.482,873.393 L351.958,878.48 L351.958,881.87 L351.123,883.568 L350.282,885.26 L350.282,886.957 L349.44,889.498 L349.44,897.975 L350.282,899.673 L350.282,901.371 L353.641,911.54 L354.482,912.388 L358.683,918.319 L360.365,920.016 L361.201,921.708 L365.402,924.249 L366.237,925.947 L370.438,928.488 L372.12,928.488 L373.797,930.185 L381.363,932.726 L382.198,932.726 L384.716,933.575 L393.123,933.575 L394.8,932.726 L396.477,932.726 L398.159,931.883 L399.842,931.883 L404.043,930.185 L405.719,929.337 L407.402,928.493 L409.079,926.796 L411.597,925.953 L412.438,924.255 L416.639,920.022 L423.363,912.394 L431.764,903.068 L442.689,893.742 L451.091,883.574 L465.375,870.009 L467.893,867.468 L425.881,823.38 L483.854,764.036 L525.86,808.118 L567.036,764.036 L625.009,823.38 L583.833,867.468 L585.521,870.009 L599.8,883.574 L609.048,893.742 L619.126,903.068 L627.533,912.394 L634.252,920.022 L639.294,924.255 L639.294,925.953 L641.812,926.796 L644.33,928.493 L645.171,929.337 L647.689,930.185 L651.054,931.883 L652.731,931.883 L654.408,932.726 L656.096,932.726 L657.773,933.575 L667.01,933.575 L668.698,932.726 L669.528,932.726 L677.935,930.185 L678.776,928.488 L680.453,928.488 L684.659,925.947 L686.336,924.249 L689.701,921.708 L691.384,920.016 L692.225,918.319 L696.42,912.388 L697.261,911.54 L700.626,901.371 L700.626,899.673 L701.456,897.975 L701.456,889.498 L700.626,886.957 L700.626,885.26 L699.785,883.568 L699.785,881.021 L698.944,878.48 L696.425,873.393 L694.749,872.55 L693.907,870.009 L692.231,869.16 L682.982,858.991 L662.821,838.642 L635.934,810.67 L576.285,748.779 L551.081,722.505 L532.596,703.005 L525.872,696.22 z M393.112,315.593 L384.705,315.593 L382.187,316.436 L381.351,316.436 L373.786,318.977 L372.109,320.675 L370.426,321.518 L366.226,324.059 L365.39,324.908 L361.19,327.448 L360.354,329.14 L358.672,330.832 L354.471,336.769 L353.63,337.612 L350.27,347.786 L350.27,349.478 L349.429,352.019 L349.429,360.496 L350.27,362.194 L350.27,363.886 L351.112,365.583 L351.947,367.275 L351.947,370.665 L354.471,375.752 L356.148,376.601 L357.83,379.991 L358.672,379.991 L367.914,390.165 L388.076,410.515 L414.962,438.486 L445.207,469.854 L474.606,500.366 L500.651,527.495 L518.295,546.146 L525.855,552.931 L551.064,527.495 L576.268,500.366 L605.677,469.848 L635.917,438.481 L662.804,410.509 L682.965,390.16 L692.213,379.991 L693.89,379.991 L694.732,376.601 L696.408,375.752 L698.926,370.665 L699.768,368.124 L699.768,365.583 L700.609,363.886 L700.609,362.194 L701.439,360.496 L701.439,352.019 L700.609,349.478 L700.609,347.786 L697.244,337.612 L696.403,336.769 L692.208,330.832 L691.367,329.14 L689.69,327.448 L686.325,324.908 L684.648,324.059 L680.442,321.518 L678.765,320.675 L677.923,318.977 L669.517,316.436 L668.687,316.436 L666.998,315.593 L657.762,315.593 L656.085,316.436 L654.397,316.436 L652.72,317.285 L651.043,317.285 L647.678,318.977 L645.16,319.826 L644.319,320.675 L641.8,322.367 L639.282,324.059 L639.282,324.908 L634.241,329.146 L627.522,336.78 L619.115,346.1 L609.037,355.426 L599.789,365.601 L585.51,380.014 L583.822,382.555 L624.998,425.788 L567.025,485.133 L525.849,441.05 L483.843,485.133 L425.87,425.788 L467.882,382.555 L465.364,380.014 L451.079,365.601 L442.678,355.426 L431.753,346.1 L423.352,336.78 L416.627,329.146 L412.427,324.908 L411.586,324.059 L409.067,322.367 L407.391,320.675 L405.708,319.826 L404.031,318.977 L399.831,317.285 L398.148,317.285 L396.466,316.436 L394.789,316.436 L393.112,315.593 z" fill="#FFFFFF"/>
    </g>
    <text transform="matrix(1, 0, 0, 1, 1754.466, 625)">
      <tspan x="-710.529" y="126.273" font-family="TsukuARdGothic-Regular" font-size="350" fill="#FFFFFF">多云管理</tspan>
    </text>
  </g>
</svg>
